<svg width="960" height="864" xmlns="http://www.w3.org/2000/svg" xmlns:xlink="http://www.w3.org/1999/xlink" overflow="hidden"><defs><clipPath id="clip0"><rect x="0" y="0" width="960" height="864"/></clipPath></defs><g clip-path="url(#clip0)"><rect x="0" y="0" width="960" height="864" fill="#FFFFFF"/><path d="M36 57.9999C36 46.402 45.402 37 57 37L225 37C236.598 37 246 46.402 246 57.9999L246 238C246 249.598 236.598 259 225 259L57 259C45.402 259 36 249.598 36 238Z" fill="#E1E1E1" fill-rule="evenodd"/><text font-family="Garamond,Garamond_MSFontService,sans-serif" font-weight="700" font-size="40" transform="translate(115.578 80)">US</text><path d="M48.5001 107.4C48.5001 105.798 49.7984 104.5 51.4001 104.5L231.6 104.5C233.202 104.5 234.5 105.798 234.5 107.4L234.5 130.6C234.5 132.202 233.202 133.5 231.6 133.5L51.4001 133.5C49.7984 133.5 48.5001 132.202 48.5001 130.6Z" stroke="#959595" stroke-width="1.33333" stroke-miterlimit="8" fill="#FFFFFF" fill-rule="evenodd"/><text font-family="Garamond,Garamond_MSFontService,sans-serif" font-weight="400" font-size="27" transform="translate(95.5751 125)">Admin 0</text><path d="M48.5001 146.5C48.5001 144.843 49.8432 143.5 51.5 143.5L231.5 143.5C233.157 143.5 234.5 144.843 234.5 146.5L234.5 170.5C234.5 172.157 233.157 173.5 231.5 173.5L51.5 173.5C49.8432 173.5 48.5001 172.157 48.5001 170.5Z" stroke="#959595" stroke-width="1.33333" stroke-miterlimit="8" fill="#FFFFFF" fill-rule="evenodd"/><text font-family="Garamond,Garamond_MSFontService,sans-serif" font-weight="400" font-size="27" transform="translate(98.1151 164)">Country</text><path d="M48.5001 190C48.5001 186.41 51.4102 183.5 55.0001 183.5L228 183.5C231.59 183.5 234.5 186.41 234.5 190L234.5 242C234.5 245.59 231.59 248.5 228 248.5L55.0001 248.5C51.4102 248.5 48.5001 245.59 48.5001 242Z" stroke="#959595" stroke-width="1.33333" stroke-miterlimit="8" fill="#FFFFFF" fill-rule="evenodd"/><text font-family="Garamond,Garamond_MSFontService,sans-serif" font-weight="700" font-size="32" transform="translate(70.6551 212)">ISO 3166 1<tspan fill="#7F7F7F" font-weight="400" font-size="21" x="37.6733" y="25">2 letters</tspan></text><path d="M262 57.9999C262 46.402 271.402 37 283 37L451 37C462.598 37 472 46.402 472 57.9999L472 238C472 249.598 462.598 259 451 259L283 259C271.402 259 262 249.598 262 238Z" fill="#E1E1E1" fill-rule="evenodd"/><text font-family="Garamond,Garamond_MSFontService,sans-serif" font-weight="700" font-size="40" transform="translate(348.245 80)">36</text><path d="M274.5 107.4C274.5 105.798 275.798 104.5 277.4 104.5L457.6 104.5C459.202 104.5 460.5 105.798 460.5 107.4L460.5 130.6C460.5 132.202 459.202 133.5 457.6 133.5L277.4 133.5C275.798 133.5 274.5 132.202 274.5 130.6Z" stroke="#959595" stroke-width="1.33333" stroke-miterlimit="8" fill="#FFFFFF" fill-rule="evenodd"/><text font-family="Garamond,Garamond_MSFontService,sans-serif" font-weight="400" font-size="27" transform="translate(321.581 125)">Admin 1</text><path d="M274.5 146.5C274.5 144.843 275.843 143.5 277.5 143.5L457.5 143.5C459.157 143.5 460.5 144.843 460.5 146.5L460.5 170.5C460.5 172.157 459.157 173.5 457.5 173.5L277.5 173.5C275.843 173.5 274.5 172.157 274.5 170.5Z" stroke="#959595" stroke-width="1.33333" stroke-miterlimit="8" fill="#FFFFFF" fill-rule="evenodd"/><text font-family="Garamond,Garamond_MSFontService,sans-serif" font-weight="400" font-size="27" transform="translate(341.868 164)">State</text><path d="M274.5 190C274.5 186.41 277.41 183.5 281 183.5L454 183.5C457.59 183.5 460.5 186.41 460.5 190L460.5 242C460.5 245.59 457.59 248.5 454 248.5L281 248.5C277.41 248.5 274.5 245.59 274.5 242Z" stroke="#959595" stroke-width="1.33333" stroke-miterlimit="8" fill="#FFFFFF" fill-rule="evenodd"/><text font-family="Garamond,Garamond_MSFontService,sans-serif" font-weight="700" font-size="32" transform="translate(332.825 212)">FIPS<tspan fill="#7F7F7F" font-weight="400" font-size="21" x="-5.26666" y="25">+ 2 digits</tspan></text><path d="M488 57.9999C488 46.402 497.402 37 509 37L677 37C688.598 37 698 46.402 698 57.9999L698 238C698 249.598 688.598 259 677 259L509 259C497.402 259 488 249.598 488 238Z" fill="#E1E1E1" fill-rule="evenodd"/><text font-family="Garamond,Garamond_MSFontService,sans-serif" font-weight="700" font-size="40" transform="translate(566.331 80)">061</text><path d="M500.5 107.4C500.5 105.798 501.798 104.5 503.4 104.5L683.6 104.5C685.202 104.5 686.5 105.798 686.5 107.4L686.5 130.6C686.5 132.202 685.202 133.5 683.6 133.5L503.4 133.5C501.798 133.5 500.5 132.202 500.5 130.6Z" stroke="#959595" stroke-width="1.33333" stroke-miterlimit="8" fill="#FFFFFF" fill-rule="evenodd"/><text font-family="Garamond,Garamond_MSFontService,sans-serif" font-weight="400" font-size="27" transform="translate(547.588 125)">Admin 2</text><path d="M500.5 146.5C500.5 144.843 501.843 143.5 503.5 143.5L683.5 143.5C685.157 143.5 686.5 144.843 686.5 146.5L686.5 170.5C686.5 172.157 685.157 173.5 683.5 173.5L503.5 173.5C501.843 173.5 500.5 172.157 500.5 170.5Z" stroke="#959595" stroke-width="1.33333" stroke-miterlimit="8" fill="#FFFFFF" fill-rule="evenodd"/><text font-family="Garamond,Garamond_MSFontService,sans-serif" font-weight="400" font-size="27" transform="translate(554.958 164)">County</text><path d="M500.5 190C500.5 186.41 503.41 183.5 507 183.5L680 183.5C683.59 183.5 686.5 186.41 686.5 190L686.5 242C686.5 245.59 683.59 248.5 680 248.5L507 248.5C503.41 248.5 500.5 245.59 500.5 242Z" stroke="#959595" stroke-width="1.33333" stroke-miterlimit="8" fill="#FFFFFF" fill-rule="evenodd"/><text font-family="Garamond,Garamond_MSFontService,sans-serif" font-weight="700" font-size="32" transform="translate(558.831 212)">FIPS<tspan fill="#7F7F7F" font-weight="400" font-size="21" x="-5.26666" y="25">+ 3 digits</tspan></text><path d="M714 57.9999C714 46.402 723.402 37 735 37L903 37C914.598 37 924 46.402 924 57.9999L924 238C924 249.598 914.598 259 903 259L735 259C723.402 259 714 249.598 714 238Z" fill="#E1E1E1" fill-rule="evenodd"/><text font-family="Garamond,Garamond_MSFontService,sans-serif" font-weight="700" font-size="40" transform="translate(773.584 80)">10476</text><path d="M726.5 107.4C726.5 105.798 727.798 104.5 729.4 104.5L909.6 104.5C911.202 104.5 912.5 105.798 912.5 107.4L912.5 130.6C912.5 132.202 911.202 133.5 909.6 133.5L729.4 133.5C727.798 133.5 726.5 132.202 726.5 130.6Z" stroke="#959595" stroke-width="1.33333" stroke-miterlimit="8" fill="#FFFFFF" fill-rule="evenodd"/><text font-family="Garamond,Garamond_MSFontService,sans-serif" font-weight="400" font-size="27" transform="translate(773.594 125)">Admin 3</text><path d="M726.5 146.5C726.5 144.843 727.843 143.5 729.5 143.5L909.5 143.5C911.157 143.5 912.5 144.843 912.5 146.5L912.5 170.5C912.5 172.157 911.157 173.5 909.5 173.5L729.5 173.5C727.843 173.5 726.5 172.157 726.5 170.5Z" stroke="#959595" stroke-width="1.33333" stroke-miterlimit="8" fill="#FFFFFF" fill-rule="evenodd"/><text font-family="Garamond,Garamond_MSFontService,sans-serif" font-weight="400" font-size="27" transform="translate(779.987 164)">District</text><path d="M726.5 190C726.5 186.41 729.41 183.5 733 183.5L906 183.5C909.59 183.5 912.5 186.41 912.5 190L912.5 242C912.5 245.59 909.59 248.5 906 248.5L733 248.5C729.41 248.5 726.5 245.59 726.5 242Z" stroke="#959595" stroke-width="1.33333" stroke-miterlimit="8" fill="#FFFFFF" fill-rule="evenodd"/><text font-family="Garamond,Garamond_MSFontService,sans-serif" font-weight="700" font-size="32" transform="translate(777.197 212)">ZCTA<tspan fill="#7F7F7F" font-weight="400" font-size="21" x="2.37335" y="25">+ 5 digits</tspan></text><path d="M36 318C36 306.402 45.402 297 57 297L225 297C236.598 297 246 306.402 246 318L246 498C246 509.598 236.598 519 225 519L57 519C45.402 519 36 509.598 36 498Z" fill="#E1E1E1" fill-rule="evenodd"/><text font-family="Garamond,Garamond_MSFontService,sans-serif" font-weight="700" font-size="40" transform="translate(119.322 340)">IT</text><path d="M48.5001 367.4C48.5001 365.798 49.7984 364.5 51.4001 364.5L231.6 364.5C233.202 364.5 234.5 365.798 234.5 367.4L234.5 390.6C234.5 392.202 233.202 393.5 231.6 393.5L51.4001 393.5C49.7984 393.5 48.5001 392.202 48.5001 390.6Z" stroke="#959595" stroke-width="1.33333" stroke-miterlimit="8" fill="#FFFFFF" fill-rule="evenodd"/><text font-family="Garamond,Garamond_MSFontService,sans-serif" font-weight="400" font-size="27" transform="translate(95.5752 385)">Admin 0</text><path d="M48.5001 406.5C48.5001 404.843 49.8432 403.5 51.5 403.5L231.5 403.5C233.157 403.5 234.5 404.843 234.5 406.5L234.5 430.5C234.5 432.157 233.157 433.5 231.5 433.5L51.5 433.5C49.8432 433.5 48.5001 432.157 48.5001 430.5Z" stroke="#959595" stroke-width="1.33333" stroke-miterlimit="8" fill="#FFFFFF" fill-rule="evenodd"/><text font-family="Garamond,Garamond_MSFontService,sans-serif" font-weight="400" font-size="27" transform="translate(98.1152 424)">Country</text><path d="M48.5001 450C48.5001 446.41 51.4102 443.5 55.0001 443.5L228 443.5C231.59 443.5 234.5 446.41 234.5 450L234.5 502C234.5 505.59 231.59 508.5 228 508.5L55.0001 508.5C51.4102 508.5 48.5001 505.59 48.5001 502Z" stroke="#959595" stroke-width="1.33333" stroke-miterlimit="8" fill="#FFFFFF" fill-rule="evenodd"/><text font-family="Garamond,Garamond_MSFontService,sans-serif" font-weight="700" font-size="32" transform="translate(70.6552 472)">ISO 3166 1<tspan fill="#7F7F7F" font-weight="400" font-size="21" x="37.6733" y="25">2 letters</tspan></text><path d="M262 318C262 306.402 271.402 297 283 297L451 297C462.598 297 472 306.402 472 318L472 498C472 509.598 462.598 519 451 519L283 519C271.402 519 262 509.598 262 498Z" fill="#E1E1E1" fill-rule="evenodd"/><text font-family="Garamond,Garamond_MSFontService,sans-serif" font-weight="700" font-size="40" transform="translate(353.455 340)">C</text><path d="M274.5 367.4C274.5 365.798 275.798 364.5 277.4 364.5L457.6 364.5C459.202 364.5 460.5 365.798 460.5 367.4L460.5 390.6C460.5 392.202 459.202 393.5 457.6 393.5L277.4 393.5C275.798 393.5 274.5 392.202 274.5 390.6Z" stroke="#959595" stroke-width="1.33333" stroke-miterlimit="8" fill="#FFFFFF" fill-rule="evenodd"/><text font-family="Garamond,Garamond_MSFontService,sans-serif" font-weight="400" font-size="27" transform="translate(321.582 385)">Admin 1</text><path d="M274.5 406.5C274.5 404.843 275.843 403.5 277.5 403.5L457.5 403.5C459.157 403.5 460.5 404.843 460.5 406.5L460.5 430.5C460.5 432.157 459.157 433.5 457.5 433.5L277.5 433.5C275.843 433.5 274.5 432.157 274.5 430.5Z" stroke="#959595" stroke-width="1.33333" stroke-miterlimit="8" fill="#FFFFFF" fill-rule="evenodd"/><text font-family="Garamond,Garamond_MSFontService,sans-serif" font-weight="400" font-size="27" transform="translate(334.182 424)">State <tspan fill="#7F7F7F" font-weight="700" font-size="18" x="56.9267" y="-8">*</tspan></text><path d="M274.5 450C274.5 446.41 277.41 443.5 281 443.5L454 443.5C457.59 443.5 460.5 446.41 460.5 450L460.5 502C460.5 505.59 457.59 508.5 454 508.5L281 508.5C277.41 508.5 274.5 505.59 274.5 502Z" stroke="#959595" stroke-width="1.33333" stroke-miterlimit="8" fill="#FFFFFF" fill-rule="evenodd"/><text font-family="Garamond,Garamond_MSFontService,sans-serif" font-weight="700" font-size="32" transform="translate(311.835 472)">NUTS 1<tspan fill="#7F7F7F" font-weight="400" font-size="21" x="-6.82669" y="25">+ 1 digit/letter</tspan></text><path d="M488 318C488 306.402 497.402 297 509 297L677 297C688.598 297 698 306.402 698 318L698 498C698 509.598 688.598 519 677 519L509 519C497.402 519 488 509.598 488 498Z" fill="#E1E1E1" fill-rule="evenodd"/><text font-family="Garamond,Garamond_MSFontService,sans-serif" font-weight="700" font-size="40" transform="translate(583.628 340)">4</text><path d="M500.5 367.4C500.5 365.798 501.798 364.5 503.4 364.5L683.6 364.5C685.202 364.5 686.5 365.798 686.5 367.4L686.5 390.6C686.5 392.202 685.202 393.5 683.6 393.5L503.4 393.5C501.798 393.5 500.5 392.202 500.5 390.6Z" stroke="#959595" stroke-width="1.33333" stroke-miterlimit="8" fill="#FFFFFF" fill-rule="evenodd"/><text font-family="Garamond,Garamond_MSFontService,sans-serif" font-weight="400" font-size="27" transform="translate(547.588 385)">Admin 2</text><path d="M500.5 406.5C500.5 404.843 501.843 403.5 503.5 403.5L683.5 403.5C685.157 403.5 686.5 404.843 686.5 406.5L686.5 430.5C686.5 432.157 685.157 433.5 683.5 433.5L503.5 433.5C501.843 433.5 500.5 432.157 500.5 430.5Z" stroke="#959595" stroke-width="1.33333" stroke-miterlimit="8" fill="#FFFFFF" fill-rule="evenodd"/><text font-family="Garamond,Garamond_MSFontService,sans-serif" font-weight="400" font-size="27" transform="translate(542.918 424)">County <tspan fill="#7F7F7F" font-weight="700" font-size="18" x="82.76" y="-8">**</tspan></text><path d="M500.5 450C500.5 446.41 503.41 443.5 507 443.5L680 443.5C683.59 443.5 686.5 446.41 686.5 450L686.5 502C686.5 505.59 683.59 508.5 680 508.5L507 508.5C503.41 508.5 500.5 505.59 500.5 502Z" stroke="#959595" stroke-width="1.33333" stroke-miterlimit="8" fill="#FFFFFF" fill-rule="evenodd"/><text font-family="Garamond,Garamond_MSFontService,sans-serif" font-weight="700" font-size="32" transform="translate(536.681 472)">NUTS 2<tspan fill="#7F7F7F" font-weight="400" font-size="21" x="-5.66669" y="25">+ 1 digit/letter</tspan></text><path d="M714 318C714 306.402 723.402 297 735 297L903 297C914.598 297 924 306.402 924 318L924 498C924 509.598 914.598 519 903 519L735 519C723.402 519 714 509.598 714 498Z" fill="#E1E1E1" fill-rule="evenodd"/><text font-family="Garamond,Garamond_MSFontService,sans-serif" font-weight="700" font-size="40" transform="translate(809.634 340)">6</text><path d="M726.5 367.4C726.5 365.798 727.798 364.5 729.4 364.5L909.6 364.5C911.202 364.5 912.5 365.798 912.5 367.4L912.5 390.6C912.5 392.202 911.202 393.5 909.6 393.5L729.4 393.5C727.798 393.5 726.5 392.202 726.5 390.6Z" stroke="#959595" stroke-width="1.33333" stroke-miterlimit="8" fill="#FFFFFF" fill-rule="evenodd"/><text font-family="Garamond,Garamond_MSFontService,sans-serif" font-weight="400" font-size="27" transform="translate(773.594 385)">Admin 3</text><path d="M726.5 406.5C726.5 404.843 727.843 403.5 729.5 403.5L909.5 403.5C911.157 403.5 912.5 404.843 912.5 406.5L912.5 430.5C912.5 432.157 911.157 433.5 909.5 433.5L729.5 433.5C727.843 433.5 726.5 432.157 726.5 430.5Z" stroke="#959595" stroke-width="1.33333" stroke-miterlimit="8" fill="#FFFFFF" fill-rule="evenodd"/><text font-family="Garamond,Garamond_MSFontService,sans-serif" font-weight="400" font-size="27" transform="translate(779.987 424)">District</text><path d="M726.5 450C726.5 446.41 729.41 443.5 733 443.5L906 443.5C909.59 443.5 912.5 446.41 912.5 450L912.5 502C912.5 505.59 909.59 508.5 906 508.5L733 508.5C729.41 508.5 726.5 505.59 726.5 502Z" stroke="#959595" stroke-width="1.33333" stroke-miterlimit="8" fill="#FFFFFF" fill-rule="evenodd"/><text font-family="Garamond,Garamond_MSFontService,sans-serif" font-weight="700" font-size="32" transform="translate(762.687 472)">NUTS 3<tspan fill="#7F7F7F" font-weight="400" font-size="21" x="-5.66663" y="25">+ 1 digit/letter</tspan><tspan fill="#7F7F7F" font-style="italic" font-weight="400" font-size="13" x="-732.828" y="327">*    </tspan><tspan fill="#7F7F7F" font-style="italic" font-weight="400" font-size="20" x="-713.828" y="333">NUTS 1 level represents groups of subregions (or equivalent) for some European countries (e.g., Italy).</tspan><tspan fill="#7F7F7F" font-style="italic" font-weight="400" font-size="13" x="-732.828" y="351">**</tspan><tspan fill="#7F7F7F" font-style="italic" font-weight="400" font-size="20" x="-711.828" y="357">NUTS 2 level represents subregions (or equivalent) for some European countries (e.g., Italy).</tspan><tspan fill="#7F7F7F" font-style="italic" font-weight="400" font-size="13" x="-732.828" y="374">***</tspan><tspan fill="#7F7F7F" font-style="italic" font-weight="400" font-size="20" x="-710.995" y="380">This administrative level may represent municipalities (or equivalent) for some countries (e.g., Brazil).</tspan><tspan fill="#7F7F7F" font-size="27" x="-732.828" y="-187">Europe:</tspan><tspan fill="#7F7F7F" font-size="27" x="-732.828" y="-447">United States:</tspan></text><path d="M36 577C36 565.402 45.402 556 57 556L225 556C236.598 556 246 565.402 246 577L246 757C246 768.598 236.598 778 225 778L57 778C45.402 778 36 768.598 36 757Z" fill="#E1E1E1" fill-rule="evenodd"/><text font-family="Garamond,Garamond_MSFontService,sans-serif" font-weight="700" font-size="40" transform="translate(113.492 599)">BR</text><path d="M48.5001 626.4C48.5001 624.798 49.7984 623.5 51.4001 623.5L231.6 623.5C233.202 623.5 234.5 624.798 234.5 626.4L234.5 649.6C234.5 651.202 233.202 652.5 231.6 652.5L51.4001 652.5C49.7984 652.5 48.5001 651.202 48.5001 649.6Z" stroke="#959595" stroke-width="1.33333" stroke-miterlimit="8" fill="#FFFFFF" fill-rule="evenodd"/><text font-family="Garamond,Garamond_MSFontService,sans-serif" font-weight="400" font-size="27" transform="translate(95.5752 644)">Admin 0</text><path d="M48.5001 665.5C48.5001 663.843 49.8432 662.5 51.5 662.5L231.5 662.5C233.157 662.5 234.5 663.843 234.5 665.5L234.5 689.5C234.5 691.157 233.157 692.5 231.5 692.5L51.5 692.5C49.8432 692.5 48.5001 691.157 48.5001 689.5Z" stroke="#959595" stroke-width="1.33333" stroke-miterlimit="8" fill="#FFFFFF" fill-rule="evenodd"/><text font-family="Garamond,Garamond_MSFontService,sans-serif" font-weight="400" font-size="27" transform="translate(98.1152 683)">Country</text><path d="M48.5001 709C48.5001 705.41 51.4102 702.5 55.0001 702.5L228 702.5C231.59 702.5 234.5 705.41 234.5 709L234.5 761C234.5 764.59 231.59 767.5 228 767.5L55.0001 767.5C51.4102 767.5 48.5001 764.59 48.5001 761Z" stroke="#959595" stroke-width="1.33333" stroke-miterlimit="8" fill="#FFFFFF" fill-rule="evenodd"/><text font-family="Garamond,Garamond_MSFontService,sans-serif" font-weight="700" font-size="32" transform="translate(70.6552 731)">ISO 3166 1<tspan fill="#7F7F7F" font-weight="400" font-size="21" x="37.6733" y="25">2 letters</tspan></text><path d="M262 577C262 565.402 271.402 556 283 556L451 556C462.598 556 472 565.402 472 577L472 757C472 768.598 462.598 778 451 778L283 778C271.402 778 262 768.598 262 757Z" fill="#E1E1E1" fill-rule="evenodd"/><text font-family="Garamond,Garamond_MSFontService,sans-serif" font-weight="700" font-size="40" transform="translate(344.498 599)">SP</text><path d="M274.5 626.4C274.5 624.798 275.798 623.5 277.4 623.5L457.6 623.5C459.202 623.5 460.5 624.798 460.5 626.4L460.5 649.6C460.5 651.202 459.202 652.5 457.6 652.5L277.4 652.5C275.798 652.5 274.5 651.202 274.5 649.6Z" stroke="#959595" stroke-width="1.33333" stroke-miterlimit="8" fill="#FFFFFF" fill-rule="evenodd"/><text font-family="Garamond,Garamond_MSFontService,sans-serif" font-weight="400" font-size="27" transform="translate(321.582 644)">Admin 1</text><path d="M274.5 665.5C274.5 663.843 275.843 662.5 277.5 662.5L457.5 662.5C459.157 662.5 460.5 663.843 460.5 665.5L460.5 689.5C460.5 691.157 459.157 692.5 457.5 692.5L277.5 692.5C275.843 692.5 274.5 691.157 274.5 689.5Z" stroke="#959595" stroke-width="1.33333" stroke-miterlimit="8" fill="#FFFFFF" fill-rule="evenodd"/><text font-family="Garamond,Garamond_MSFontService,sans-serif" font-weight="400" font-size="27" transform="translate(289.415 683)">Province/State</text><path d="M274.5 709C274.5 705.41 277.41 702.5 281 702.5L454 702.5C457.59 702.5 460.5 705.41 460.5 709L460.5 761C460.5 764.59 457.59 767.5 454 767.5L281 767.5C277.41 767.5 274.5 764.59 274.5 761Z" stroke="#959595" stroke-width="1.33333" stroke-miterlimit="8" fill="#FFFFFF" fill-rule="evenodd"/><text font-family="Garamond,Garamond_MSFontService,sans-serif" font-weight="700" font-size="32" transform="translate(295.502 731)">ISO 3166 2<tspan fill="#7F7F7F" font-weight="400" font-size="21" x="-3.35333" y="25">principal divisions</tspan></text><path d="M488 577C488 565.402 497.402 556 509 556L677 556C688.598 556 698 565.402 698 577L698 757C698 768.598 688.598 778 677 778L509 778C497.402 778 488 768.598 488 757Z" fill="#E1E1E1" fill-rule="evenodd"/><text font-family="Garamond,Garamond_MSFontService,sans-serif" font-weight="700" font-size="40" transform="translate(527.368 599)">3550308</text><path d="M500.5 626.4C500.5 624.798 501.798 623.5 503.4 623.5L683.6 623.5C685.202 623.5 686.5 624.798 686.5 626.4L686.5 649.6C686.5 651.202 685.202 652.5 683.6 652.5L503.4 652.5C501.798 652.5 500.5 651.202 500.5 649.6Z" stroke="#959595" stroke-width="1.33333" stroke-miterlimit="8" fill="#FFFFFF" fill-rule="evenodd"/><text fill="#7F7F7F" font-family="Garamond,Garamond_MSFontService,sans-serif" font-weight="400" font-size="27" transform="translate(547.588 644)">Admin 2</text><path d="M500.5 665.5C500.5 663.843 501.843 662.5 503.5 662.5L683.5 662.5C685.157 662.5 686.5 663.843 686.5 665.5L686.5 689.5C686.5 691.157 685.157 692.5 683.5 692.5L503.5 692.5C501.843 692.5 500.5 691.157 500.5 689.5Z" stroke="#959595" stroke-width="1.33333" stroke-miterlimit="8" fill="#FFFFFF" fill-rule="evenodd"/><text fill="#7F7F7F" font-family="Garamond,Garamond_MSFontService,sans-serif" font-weight="400" font-size="27" transform="translate(538.564 683)">County <tspan font-weight="700" font-size="18" x="82.76" y="-8">***</tspan></text><path d="M500.5 709C500.5 705.41 503.41 702.5 507 702.5L680 702.5C683.59 702.5 686.5 705.41 686.5 709L686.5 761C686.5 764.59 683.59 767.5 680 767.5L507 767.5C503.41 767.5 500.5 764.59 500.5 761Z" stroke="#959595" stroke-width="1.33333" stroke-miterlimit="8" fill="#FFFFFF" fill-rule="evenodd"/><text fill="#7F7F7F" font-family="Garamond,Garamond_MSFontService,sans-serif" font-weight="700" font-size="32" transform="translate(543.681 731)">Local 2<tspan font-weight="400" font-size="21" x="-16.3066" y="25">country specific</tspan></text><path d="M714 577C714 565.402 723.402 556 735 556L903 556C914.598 556 924 565.402 924 577L924 757C924 768.598 914.598 778 903 778L735 778C723.402 778 714 768.598 714 757Z" fill="#E1E1E1" fill-rule="evenodd"/><path d="M726.5 626.4C726.5 624.798 727.798 623.5 729.4 623.5L909.6 623.5C911.202 623.5 912.5 624.798 912.5 626.4L912.5 649.6C912.5 651.202 911.202 652.5 909.6 652.5L729.4 652.5C727.798 652.5 726.5 651.202 726.5 649.6Z" stroke="#959595" stroke-width="1.33333" stroke-miterlimit="8" fill="#FFFFFF" fill-rule="evenodd"/><text fill="#7F7F7F" font-family="Garamond,Garamond_MSFontService,sans-serif" font-weight="400" font-size="27" transform="translate(773.594 644)">Admin 3</text><path d="M726.5 665.5C726.5 663.843 727.843 662.5 729.5 662.5L909.5 662.5C911.157 662.5 912.5 663.843 912.5 665.5L912.5 689.5C912.5 691.157 911.157 692.5 909.5 692.5L729.5 692.5C727.843 692.5 726.5 691.157 726.5 689.5Z" stroke="#959595" stroke-width="1.33333" stroke-miterlimit="8" fill="#FFFFFF" fill-rule="evenodd"/><text fill="#7F7F7F" font-family="Garamond,Garamond_MSFontService,sans-serif" font-weight="400" font-size="27" transform="translate(779.987 683)">District</text><path d="M726.5 709C726.5 705.41 729.41 702.5 733 702.5L906 702.5C909.59 702.5 912.5 705.41 912.5 709L912.5 761C912.5 764.59 909.59 767.5 906 767.5L733 767.5C729.41 767.5 726.5 764.59 726.5 761Z" stroke="#959595" stroke-width="1.33333" stroke-miterlimit="8" fill="#FFFFFF" fill-rule="evenodd"/><text fill="#7F7F7F" font-family="Garamond,Garamond_MSFontService,sans-serif" font-weight="700" font-size="32" transform="translate(769.687 731)">Local 3<tspan font-weight="400" font-size="21" x="-16.3066" y="25">country specific</tspan><tspan font-size="27" x="-739.828" y="-187">Global:</tspan></text></g></svg>